<svg xmlns="http://www.w3.org/2000/svg" xmlns:xlink="http://www.w3.org/1999/xlink" xmlns:a="http://ns.adobe.com/AdobeSVGViewerExtensions/3.0/" version="1.1" x="0px" y="0px" width="548px" height="140px" viewBox="-0.809 -1.549 548 140" enable-background="new -0.809 -1.549 548 140" xml:space="preserve"><defs/><path fill="#B4C3D3" d="M0 70.217h17.279l9.09 43.289l9.81-43.289h13.049l9.81 43.469l9.09-43.469h17.189l-17.64 66.598H52.738 L42.569 93.707l-9.99 43.108h-15.39L0 70.217z"/><path fill="#B4C3D3" d="M138.417 136.815h-14.939v-5.4c-2.7 4.86-8.91 7.11-14.759 7.11c-15.839 0-25.109-12.419-25.109-26.729 c0-16.379 11.79-26.639 25.109-26.639c8.189 0 12.8 4 14.8 7.02v-5.31h14.939V136.815z M98.549 112.1 c0 4.6 3.4 12.5 12.4 12.51c5.31 0 8.549-2.521 10.439-5.58c1.26-1.979 1.89-4.14 2.07-6.39s-0.27-4.5-1.26-6.57 c-1.62-3.42-5.04-6.93-11.34-6.93c-8.549 0-12.329 7.2-12.329 12.87L98.549 112.066L98.549 112.066z"/><path fill="#B4C3D3" d="M149.309 86.867h13.949v5.31c1.71-2.43 4.86-7.02 13.77-7.02c16.829 0 18.5 13.7 18.5 20.429v31.229 h-14.939v-27.27c0-5.489-1.17-10.35-7.83-10.35c-7.379 0-8.549 5.31-8.549 10.439v27.18H149.31L149.309 86.867L149.309 86.867z"/><path fill="#B4C3D3" d="M209.158 98.207h-7.38v-11.34h7.38V70.217h14.939v16.649h7.199v11.339h-7.199v38.609h-14.939V98.207z"/><path fill="#B4C3D3" d="M265.586 86.867h13.951v5.31c0 0 0.898-1.8 3.061-3.51c2.158-1.8 5.67-3.51 10.889-3.51 c3.42 0 7.7 0.9 11.4 4.77c1.08 1.1 2.1 2.4 3 4.141c0.99-1.53 2.16-3.061 3.6-4.32c2.971-2.7 7.02-4.59 12.24-4.59 c3.51 0 9.1 0.8 13.1 5.04c4.68 5 5.4 8.3 5.4 19.349v27.27h-14.939v-26.549c0-2.07 0-4.771-0.99-7.021 c-0.898-2.34-2.789-4.05-6.658-4.05c-4.141 0-6.211 1.89-7.199 4.14c-1.08 2.25-1.08 4.771-1.08 6.209v27.271h-14.939v-27.18 c0-1.35 0-3.96-0.9-6.21c-0.988-2.34-2.789-4.229-6.568-4.229c-4.229 0-6.301 1.979-7.381 4.41c-1.08 2.43-1.08 5.129-1.08 6.7 v26.549H265.59V86.867H265.586z"/><path fill="#B4C3D3" d="M350.457 111.706c0-12.148 8.729-26.459 26.908-26.459c18.182 0 26.9 14.3 26.9 26.5 c0 12.24-8.729 26.548-26.91 26.548c-18.18 0-26.908-14.309-26.908-26.548V111.706z M365.396 111.9 c0 7.2 5.5 12.5 12 12.511s11.971-5.311 11.971-12.6s-5.49-12.6-11.971-12.6s-11.971 5.31-11.971 12.6V111.884z"/><path fill="#B4C3D3" d="M412.646 86.867h14.039v5.58c1.439-2.7 4.051-7.29 12.689-7.29v15.029h-0.539c-7.65 0-11.25 2.79-11.25 9.8 v26.819h-14.939V86.867z"/><path fill="#B4C3D3" d="M456.294 117.016c0.631 5.3 5.7 8.8 11.5 8.818c4.771 0 7.289-2.068 9.09-4.68h15.299 c-2.43 5.579-5.938 9.898-10.17 12.779c-4.139 2.97-9.088 4.5-14.219 4.5c-14.309 0-26.459-11.61-26.459-26.459 c0-13.95 10.98-26.819 26.189-26.819c7.648 0 14.2 3 18.9 7.919c6.299 6.8 8.2 14.8 7 23.939h-37.168V117.016z M478.794 105.675c-0.361-2.34-3.422-7.92-11.16-7.92c-7.74 0-10.799 5.58-11.16 7.92H478.794z"/><path fill="#B4C3D3" d="M513.623 115.667c0.092-6.3 3.422-10.17 9.359-15.84c4.5-4.41 6.121-7.11 6.121-9.9 c0-3.239-1.531-5.579-5.221-5.579c-4.949 0-5.939 3.6-6.119 6.75c-0.09 0.63-0.09 1.26-0.09 1.89h-16.471 c-0.09-0.811-0.09-1.17-0.09-1.62c0-12.959 9.9-22.409 23.67-22.409c14.039 0 21.6 10.2 21.6 19.1 c0 8.279-5.311 13.139-10.17 17.639c-5.852 5.4-6.66 7.199-6.932 9.99H513.623z M529.283 136.815h-15.658v-15.299h15.658V136.815z"/><path fill="#B3C2D2" d="M0.191 66.598V0H17.2v25.02h21.779V0h17.009v66.598H38.979V39.959H17.2v26.639H0.191z"/><path fill="#B3C2D2" d="M67.421 0H82.36v11.34H67.421V0z M67.421 16.649H82.36v49.948H67.421V16.649z"/><path fill="#B3C2D2" d="M123.938 27.989h-7.38V16.648h7.38V0h14.939v16.648h7.2v11.341h-7.2v38.608h-14.939V27.989z"/><path fill="#B3C2D2" d="M152.559 0h14.939v14.938v6.301c2.7-4.5 7.739-6.301 13.049-6.301c7.65 0 12.1 2.7 14.8 7.1 c2.7 4.3 3.4 10.3 3.4 16.649v27.899h-14.939V39.419c0-2.79-0.36-5.4-1.53-7.29c-1.26-1.89-3.24-3.149-6.479-3.149 c-4.14 0-6.3 1.891-7.29 4.051c-1.08 2.158-1.08 4.59-1.08 5.85v27.718h-14.939V0L152.559 0z"/><path fill="#B3C2D2" d="M221.678 46.799c0.629 5.3 5.7 8.8 11.5 8.819c4.771 0 7.289-2.07 9.09-4.681h15.3 c-2.431 5.579-5.939 9.899-10.171 12.779c-4.139 2.97-9.09 4.5-14.219 4.5c-14.31 0-26.458-11.609-26.458-26.458 c0-13.949 10.979-26.819 26.189-26.819c7.648 0 14.2 3 18.9 7.92c6.299 6.8 8.2 14.8 7 23.939L221.678 46.8 L221.678 46.799z M244.176 35.459c-0.359-2.34-3.42-7.92-11.158-7.92c-7.74 0-10.801 5.58-11.16 7.92H244.176z"/><path fill="#B3C2D2" d="M267.486 16.649h14.042v5.58c1.439-2.699 4.049-7.29 12.689-7.29v15.029h-0.541 c-7.65 0-11.25 2.79-11.25 9.811v26.818h-14.941V16.649L267.486 16.649z"/><path fill="#B3C2D2" d="M311.138 46.799c0.629 5.3 5.7 8.8 11.5 8.819c4.77 0 7.289-2.07 9.088-4.681h15.301 c-2.43 5.579-5.939 9.899-10.17 12.779c-4.141 2.97-9.09 4.5-14.219 4.5c-14.311 0-26.459-11.609-26.459-26.458 c0-13.949 10.979-26.819 26.188-26.819c7.65 0 14.2 3 18.9 7.92c6.299 6.8 8.2 14.8 7 23.939L311.138 46.8 L311.138 46.799z M333.636 35.459c-0.359-2.34-3.42-7.92-11.16-7.92c-7.738 0-10.799 5.58-11.158 7.92H333.636z"/><path fill="#B3C2D2" d="M374.316 44.639h-15.389V0h15.389V44.639z M374.316 66.598h-15.389v-15.3h15.389V66.598z"/></svg>